<svg xmlns="http://www.w3.org/2000/svg" viewBox="0 0 1080 482.2"><path d="M439.7,462.3c-12,0-22.1,4.8-30.1,16.8L376.9,286.2l2.6-1.4C422.9,351,490.5,392,549.4,392c42.9,0,71-17.4,71-46.9,0-30.1-39.5-44.9-102.3-66.3C458.5,257.4,384.9,224.5,384.9,138c0-77.7,71-138,170-138,54.9,0,81,15.4,99.7,15.4,10.8,0,18.1-3.4,25.4-12.8l21.4,170.7-2.6,1.4C666.7,120.4,612.4,89,556.3,89c-44.1,0-73.6,20.2-73.6,46.9,0,30.2,38.9,42.9,79.6,58.9,70.2,24.2,158,57.5,157.2,148.8,0,80.3-70.2,138.6-164,138.6C497.9,482.2,460.4,462.3,439.7,462.3ZM831.5,2.5,957.8,239.2,830.4,477.9H954.6L1080,239.2,956.8,2.5Zm-706.1,0L0,241.2,123.2,477.9H248.4L122.2,241.2,249.6,2.5Z" fill="#333"/></svg>