<svg viewBox="0 0 1221 816" id="mobBlob" version="1.1" xmlns="http://www.w3.org/2000/svg" xmlns:xlink="http://www.w3.org/1999/xlink" preserveAspectRatio="none">
  <defs>
    <linearGradient x1="7.11857039%" y1="36.5635471%" x2="98.7717763%" y2="37.2362585%" id="mobmenugrad-1">
      <stop id="stop1" stop-color="#01A29E" offset="0%" style="stop-color: rgb(247, 107, 28);"></stop>
      <stop id="stop2" stop-color="#01A498" offset="69.3396326%" style="stop-color: rgb(248, 160, 61);"></stop>
      <stop id="stop3" stop-color="#01B175" offset="100%" style="stop-color: rgb(250, 217, 97);"></stop>
    </linearGradient>
  </defs>
  <g id="Page-1" stroke="none" stroke-width="1" fill="none" fill-rule="evenodd">
    <g id="Rectangle">
      <path fill="url(#mobmenugrad-1)" d="M1235,816 C1235,544 1235,272 1235,0 867.69,0 500.39,0 133.09,0 112.06844102777782,48.0215256388889 198.8344477222224,96.67547308333317 112.36929966666645,133.70754061111094 25.894218305554944,170.74947474999982 52.35318461111086,247.76004166666658 127.91150063888895,310.1136681666665 203.45981666666705,372.47716127777755 163.21700294444457,463.24481447222206 112.12233013888888,489.99136302777754 61.01765733333322,516.7279782777775 31.910350111110933,540.1037681944442 8.289612305555387,604.4862650833333 -15.331192194444604,668.8688286666666 22.4001417222222,799.2229554166668 36.53,816 436.02,816 835.51,816 1235,816 z" id="mob1" data-original="M1221,816 L1221,0 L119.09375,0 C129.378906,45 180.800781,98.0546875 124.992188,130.054687 C69.1835937,162.054688 54.7109375,244.695312 113.992188,309.957031 C173.273438,375.21875 133.28125,440.378906 98.1328125,489.761719 C62.984375,539.144531 8.38671875,603.585937 2.40625,675.773437 C-3.57421875,747.960937 8.38671875,799.332031 22.53125,816 L1221,816 Z"></path>

      <path fill-opacity="0" d="M1202,816 L1202,0 L100.09375,0 C110.378906,45 191.835937,88.515625 105.992187,130.054687 C20.1484375,171.59375 11.359375,225.921875 94.9921875,309.957031 C178.625,393.992187 143.566406,426.910156 79.1328125,489.761719 C14.6992187,552.613281 14.6992187,622.875 26.65625,697.054687 C38.6132813,771.234375 -10.6132813,799.332031 3.53125,816 L1202,816 Z" id="mob2"></path>

      <path fill="url(#mobmenugrad-2)" fill-opacity="0" d="M1210,816 L1210,0 L108.09375,0 C118.378906,45 185.410156,85.7382812 116.535156,145.445312 C47.6601563,205.152344 13.3632813,287.5 96.9960938,371.535156 C180.628906,455.570312 117.769531,486.546875 53.3359375,549.398437 C-11.0976562,612.25 28.265625,648.363281 40.2226563,722.542969 C52.1796875,796.722656 -28.453125,796.722656 11.53125,816 L1210,816 Z" id="mob3"></path>

      <path fill-opacity="0" d="M1235,816 L1235,0 L133.09375,0 C102.906527,45.2760145 168.228707,122.819399 148.016579,160.150395 C127.804451,197.48139 94.537774,262.665857 116.222379,334.492359 C137.906984,406.318861 140.438797,492.26631 110.982198,524.455996 C81.5255986,556.645681 61.7532131,576.416419 36.53125,627.76949 C11.3092869,679.122562 25.405516,783.287056 36.53125,816 L1235,816 Z" id="mob4"></path>

      <path fill-opacity="0" d="M1235,816 L1235,0 L133.09375,0 C112.132813,48.0479433 199.048939,96.5090516 112.132813,133.539878 C25.2166863,170.570704 52.0760618,247.66213 127.992188,309.957031 C203.908314,372.251932 163.375889,463.054835 112.132813,489.761719 C60.8897361,516.468603 31.7180954,539.86227 8.1030304,604.33345 C-15.5120346,668.80463 22.3867188,799.332031 36.53125,816 L1235,816 Z" id="mob5"></path>
      <path filter="url(#filter-2)"></path>
    </g>
  </g>
</svg>