<svg xmlns="http://www.w3.org/2000/svg" xmlns:xlink="http://www.w3.org/1999/xlink"><defs><symbol viewBox="0 0 24.78 29.42" id="arrow-down"><path d="M0,17,12.39,29.42,24.78,17l-2.4-2.4-8.29,8.3V0h-3.4V22.93L2.4,14.63Z" /></symbol><symbol viewBox="0 0 24.78 29.42" id="arrow-up"><path d="M24.78,12.39,12.39,0,0,12.39l2.4,2.4,8.29-8.3V29.42h3.4V6.49l8.29,8.3Z" /></symbol><symbol viewBox="0 0 25.71 25.71" id="close"><path d="M25.71,1.35,24.36,0,12.85,11.51,1.35,0,0,1.35l11.52,11.5L0,24.36l1.35,1.35,11.5-11.52L24.36,25.71l1.35-1.35L14.19,12.85Z" /></symbol><symbol class="svg-fill" viewBox="0 0 19.29 12.05" id="email"><path d="M0,0V12.05H19.29V0ZM17.16,1,9.65,6.08,2.13,1ZM1,11.05V1.44L9.65,7.29l8.64-5.85v9.61Z" /></symbol><symbol viewBox="0 0 264 512" id="facebook"><path d="M76.7 512V283H0v-91h76.7v-71.7C76.7 42.4 124.3 0 193.8 0c33.3 0 61.9 2.5 70.2 3.6V85h-48.2c-37.8 0-45.1 18-45.1 44.3V192H256l-11.7 91h-73.6v229" /></symbol><symbol viewBox="0 0 448 512" id="instagram"><path d="M224.1 141c-63.6 0-114.9 51.3-114.9 114.9s51.3 114.9 114.9 114.9S339 319.5 339 255.9 287.7 141 224.1 141zm0 189.6c-41.1 0-74.7-33.5-74.7-74.7s33.5-74.7 74.7-74.7 74.7 33.5 74.7 74.7-33.6 74.7-74.7 74.7zm146.4-194.3c0 14.9-12 26.8-26.8 26.8-14.9 0-26.8-12-26.8-26.8s12-26.8 26.8-26.8 26.8 12 26.8 26.8zm76.1 27.2c-1.7-35.9-9.9-67.7-36.2-93.9-26.2-26.2-58-34.4-93.9-36.2-37-2.1-147.9-2.1-184.9 0-35.8 1.7-67.6 9.9-93.9 36.1s-34.4 58-36.2 93.9c-2.1 37-2.1 147.9 0 184.9 1.7 35.9 9.9 67.7 36.2 93.9s58 34.4 93.9 36.2c37 2.1 147.9 2.1 184.9 0 35.9-1.7 67.7-9.9 93.9-36.2 26.2-26.2 34.4-58 36.2-93.9 2.1-37 2.1-147.8 0-184.8zM398.8 388c-7.8 19.6-22.9 34.7-42.6 42.6-29.5 11.7-99.5 9-132.1 9s-102.7 2.6-132.1-9c-19.6-7.8-34.7-22.9-42.6-42.6-11.7-29.5-9-99.5-9-132.1s-2.6-102.7 9-132.1c7.8-19.6 22.9-34.7 42.6-42.6 29.5-11.7 99.5-9 132.1-9s102.7-2.6 132.1 9c19.6 7.8 34.7 22.9 42.6 42.6 11.7 29.5 9 99.5 9 132.1s2.7 102.7-9 132.1z" /></symbol><symbol viewBox="0 0 24 16" id="menu"><path d="M0,16V14H24v2ZM0,7H24V9H0ZM0,0H24V2H0Z" /></symbol><symbol viewBox="0 0 512 512" id="pinterest"><title>Pinterest Icon</title><path d="M65.75,184.36c0,50.16,18.46,94.76,57.94,111.55,6.45,2.78,12.35.11,14.12-7.34,1.22-5.12,4.45-18.13,5.78-23.47,2-7.34,1.11-9.9-4.12-16.24-11.34-13.79-18.68-31.81-18.68-57.28,0-73.74,53.38-139.69,139.13-139.69,76,0,117.67,47.82,117.67,111.77,0,84.08-36.15,155.15-89.64,155.15-29.58,0-51.72-25.25-44.6-56.16,8.45-36.92,25-76.85,25-103.43,0-23.91-12.46-43.82-38.15-43.82-30.25,0-54.5,32.25-54.5,75.52,0,27.58,9,46.27,9,46.27s-30.81,135-36.26,158.71c-10.79,47.16-1.67,105-.78,110.77a3.81,3.81,0,0,0,6.78,1.78c2.78-3.67,38.81-49.6,50.94-95.42,3.45-12.9,19.91-80.19,19.91-80.19,9.9,19.24,38.59,36.37,69.07,36.37,91,0,152.59-85.53,152.59-200C447,82.71,375.93,2.08,268.05,2.08,133.59,2.08,65.75,101.51,65.75,184.36Z" /></symbol><symbol viewBox="0 0 20.41 20.41" id="search"><path d="M20.41,19l-5.76-5.76a8.24,8.24,0,1,0-1.41,1.41L19,20.41ZM2,8.2a6.2,6.2,0,1,1,6.2,6.2A6.21,6.21,0,0,1,2,8.2Z" /></symbol><symbol viewBox="0 0 58 58" id="sms"><title>sms</title><path d="M29,3.37C13.4,3.37.67,13.63.67,26.2c0,7.5,4.51,14.18,11.5,18.33a19.85,19.85,0,0,1-5.24,7.06A1.25,1.25,0,0,0,6.64,53a1.27,1.27,0,0,0,1.09.73h.14A30.67,30.67,0,0,0,22,48.32,36.67,36.67,0,0,0,29,49c15.63,0,28.36-10.25,28.36-22.84S44.68,3.37,29,3.37Zm-14.69,28a4.8,4.8,0,1,1,4.8-4.8,4.8,4.8,0,0,1-4.8,4.8Zm15.13,0a4.8,4.8,0,1,1,4.8-4.8,4.8,4.8,0,0,1-4.8,4.8h0Zm15.06-.22a4.8,4.8,0,1,1,4.8-4.8h0a4.8,4.8,0,0,1-4.79,4.8h0Z" /></symbol><symbol viewBox="0 0 26 28" id="twitter"><path d="M25.312 6.375a10.85 10.85 0 01-2.531 2.609c.016.219.016.438.016.656 0 6.672-5.078 14.359-14.359 14.359-2.859 0-5.516-.828-7.75-2.266.406.047.797.063 1.219.063 2.359 0 4.531-.797 6.266-2.156a5.056 5.056 0 01-4.719-3.5c.313.047.625.078.953.078.453 0 .906-.063 1.328-.172a5.048 5.048 0 01-4.047-4.953v-.063a5.093 5.093 0 002.281.641 5.044 5.044 0 01-2.25-4.203c0-.938.25-1.797.688-2.547a14.344 14.344 0 0010.406 5.281 5.708 5.708 0 01-.125-1.156 5.045 5.045 0 015.047-5.047 5.03 5.03 0 013.687 1.594 9.943 9.943 0 003.203-1.219 5.032 5.032 0 01-2.219 2.781c1.016-.109 2-.391 2.906-.781z" /></symbol></defs></svg>