<svg width="512" height="97" viewBox="0 0 512 97" fill="none" xmlns="http://www.w3.org/2000/svg">
<path d="M46.656 68.848C46.784 68.848 46.848 69.04 46.848 69.424C46.848 69.808 46.784 70 46.656 70C45.056 70 43.808 69.968 42.912 69.904L37.728 69.808L30.72 69.904C29.696 69.968 28.288 70 26.496 70C26.368 70 26.304 69.808 26.304 69.424C26.304 69.04 26.368 68.848 26.496 68.848C29.568 68.848 31.104 68.208 31.104 66.928C31.104 66.352 30.816 65.68 30.24 64.912L18.528 49.264L14.304 52.624V62.224C14.304 64.912 14.688 66.704 15.456 67.6C16.224 68.432 17.824 68.848 20.256 68.848C20.448 68.848 20.544 69.04 20.544 69.424C20.544 69.808 20.448 70 20.256 70C18.656 70 17.408 69.968 16.512 69.904L11.328 69.808L5.952 69.904C5.056 69.968 3.872 70 2.4 70C2.208 70 2.112 69.808 2.112 69.424C2.112 69.04 2.208 68.848 2.4 68.848C4.768 68.848 6.336 68.432 7.104 67.6C7.872 66.704 8.256 64.912 8.256 62.224V12.784C8.256 10.48 8.032 8.816 7.584 7.792C7.136 6.768 6.368 6.256 5.28 6.256C4.384 6.256 2.976 6.704 1.056 7.6H0.96C0.704 7.6 0.48 7.44 0.288 7.12C0.16 6.8 0.224 6.576 0.48 6.44799L12.864 0.495996L13.344 0.399998C13.536 0.399998 13.728 0.495996 13.92 0.687994C14.176 0.879995 14.304 1.072 14.304 1.264V50.992L26.496 40.816C28.48 39.216 29.472 37.808 29.472 36.592C29.472 35.824 29.024 35.216 28.128 34.768C27.296 34.32 26.016 34.096 24.288 34.096C24.096 34.096 24 33.904 24 33.52C24 33.136 24.096 32.944 24.288 32.944C26.08 32.944 27.424 32.976 28.32 33.04L35.424 33.136L41.952 33.04C42.848 32.976 44.032 32.944 45.504 32.944C45.632 32.944 45.696 33.136 45.696 33.52C45.696 33.904 45.632 34.096 45.504 34.096C43.008 34.096 40.256 34.704 37.248 35.92C34.304 37.072 31.392 38.832 28.512 41.2L23.232 45.424L35.712 62.224C38.912 66.64 42.56 68.848 46.656 68.848ZM79.4528 64.432C79.6448 64.432 79.8048 64.56 79.9328 64.816C80.1248 65.008 80.1568 65.2 80.0288 65.392C75.7408 69.232 71.0048 71.152 65.8208 71.152C62.0448 71.152 58.8128 70.32 56.1248 68.656C53.4368 66.928 51.3888 64.656 49.9808 61.84C48.5728 58.96 47.8688 55.888 47.8688 52.624C47.8688 48.848 48.7648 45.392 50.5568 42.256C52.4128 39.12 54.9088 36.656 58.0448 34.864C61.1808 33.008 64.6368 32.08 68.4128 32.08C72.1248 32.08 74.9408 33.04 76.8608 34.96C78.8448 36.816 79.8368 39.504 79.8368 43.024C79.8368 44.752 79.4528 45.616 78.6848 45.616L54.9728 45.712C54.8448 47.12 54.7808 48.208 54.7808 48.976C54.7808 54.544 56.0928 59.024 58.7168 62.416C61.3408 65.808 65.0528 67.504 69.8528 67.504C71.7728 67.504 73.3728 67.28 74.6528 66.832C75.9968 66.32 77.5648 65.52 79.3568 64.432H79.4528ZM65.1488 34C62.4608 34 60.2528 34.928 58.5248 36.784C56.7968 38.576 55.6768 41.104 55.1648 44.368L72.6368 43.984C72.6368 40.72 71.9648 38.256 70.6208 36.592C69.3408 34.864 67.5168 34 65.1488 34ZM124.59 32.944C124.718 32.944 124.782 33.136 124.782 33.52C124.782 33.904 124.718 34.096 124.59 34.096C122.926 34.096 121.486 34.672 120.27 35.824C119.118 36.912 117.998 38.768 116.91 41.392L104.91 69.904C104.782 70.224 104.43 70.384 103.854 70.384C103.342 70.384 102.99 70.224 102.798 69.904L89.166 40.912C87.886 38.096 86.798 36.272 85.902 35.44C85.006 34.544 83.918 34.096 82.638 34.096C82.446 34.096 82.35 33.904 82.35 33.52C82.35 33.136 82.446 32.944 82.638 32.944C83.854 32.944 84.814 32.976 85.518 33.04L89.646 33.136L96.174 33.04C97.134 32.976 98.446 32.944 100.11 32.944C100.302 32.944 100.398 33.136 100.398 33.52C100.398 33.904 100.302 34.096 100.11 34.096C96.334 34.096 94.446 34.832 94.446 36.304C94.446 36.816 94.574 37.328 94.83 37.84L106.254 61.84L114.894 41.008C115.342 39.792 115.566 38.832 115.566 38.128C115.566 35.44 113.102 34.096 108.174 34.096C108.046 34.096 107.982 33.904 107.982 33.52C107.982 33.136 108.046 32.944 108.174 32.944C109.902 32.944 111.214 32.976 112.11 33.04L117.87 33.136L121.518 33.04C122.158 32.976 123.182 32.944 124.59 32.944ZM136.741 21.136C135.333 21.136 134.213 20.752 133.381 19.984C132.613 19.216 132.229 18.128 132.229 16.72C132.229 15.44 132.613 14.416 133.381 13.648C134.213 12.88 135.333 12.496 136.741 12.496C138.085 12.496 139.141 12.88 139.909 13.648C140.677 14.416 141.061 15.44 141.061 16.72C141.061 18.128 140.677 19.216 139.909 19.984C139.141 20.752 138.085 21.136 136.741 21.136ZM128.485 70C128.293 70 128.197 69.808 128.197 69.424C128.197 69.04 128.293 68.848 128.485 68.848C130.853 68.848 132.421 68.432 133.189 67.6C133.957 66.704 134.341 64.912 134.341 62.224V44.368C134.341 42.128 134.117 40.496 133.669 39.472C133.221 38.448 132.421 37.936 131.269 37.936C130.181 37.936 128.773 38.384 127.045 39.28H126.949C126.693 39.28 126.501 39.12 126.373 38.8C126.245 38.48 126.309 38.256 126.565 38.128L139.333 32.176L139.717 32.08C139.909 32.08 140.101 32.176 140.293 32.368C140.549 32.56 140.677 32.752 140.677 32.944C140.677 33.392 140.645 34.672 140.581 36.784C140.517 38.896 140.485 41.392 140.485 44.272V62.224C140.485 64.08 140.613 65.488 140.869 66.448C141.189 67.344 141.765 67.984 142.597 68.368C143.429 68.688 144.677 68.848 146.341 68.848C146.533 68.848 146.629 69.04 146.629 69.424C146.629 69.808 146.533 70 146.341 70C144.741 70 143.493 69.968 142.597 69.904L137.413 69.808L132.037 69.904C131.141 69.968 129.957 70 128.485 70ZM196.499 68.848C196.691 68.848 196.787 69.04 196.787 69.424C196.787 69.808 196.691 70 196.499 70C194.899 70 193.651 69.968 192.755 69.904L187.571 69.808L182.387 69.904C181.491 69.968 180.275 70 178.739 70C178.547 70 178.451 69.808 178.451 69.424C178.451 69.04 178.547 68.848 178.739 68.848C180.403 68.848 181.619 68.688 182.387 68.368C183.219 67.984 183.763 67.344 184.019 66.448C184.339 65.488 184.499 64.08 184.499 62.224V46.96C184.499 43.248 183.795 40.528 182.387 38.8C181.043 37.008 178.867 36.112 175.859 36.112C174.003 36.112 172.083 36.592 170.099 37.552C168.179 38.512 166.419 39.856 164.819 41.584V62.224C164.819 64.08 164.947 65.488 165.203 66.448C165.523 67.344 166.099 67.984 166.931 68.368C167.763 68.688 169.011 68.848 170.675 68.848C170.867 68.848 170.963 69.04 170.963 69.424C170.963 69.808 170.867 70 170.675 70C169.075 70 167.827 69.968 166.931 69.904L161.747 69.808L156.563 69.904C155.667 69.968 154.451 70 152.915 70C152.723 70 152.627 69.808 152.627 69.424C152.627 69.04 152.723 68.848 152.915 68.848C154.579 68.848 155.795 68.688 156.563 68.368C157.395 67.984 157.939 67.344 158.195 66.448C158.515 65.488 158.675 64.08 158.675 62.224V43.408C158.675 41.296 158.419 39.76 157.907 38.8C157.395 37.84 156.563 37.36 155.411 37.36C154.451 37.36 152.755 37.84 150.323 38.8H150.227C149.971 38.8 149.779 38.672 149.651 38.416C149.523 38.096 149.587 37.872 149.843 37.744L161.363 32.176L161.939 32.08C162.579 32.08 163.187 32.816 163.763 34.288C164.403 35.696 164.755 37.584 164.819 39.952C169.491 34.448 174.387 31.696 179.507 31.696C183.027 31.696 185.747 32.72 187.667 34.768C189.651 36.816 190.643 39.728 190.643 43.504V62.224C190.643 64.08 190.771 65.488 191.027 66.448C191.347 67.344 191.923 67.984 192.755 68.368C193.587 68.688 194.835 68.848 196.499 68.848ZM258.893 65.68C259.149 65.68 259.277 66.288 259.277 67.504C259.277 68.08 259.213 68.624 259.085 69.136C259.021 69.648 258.925 69.904 258.797 69.904C257.069 69.776 254.477 69.648 251.021 69.52V84.4C251.021 85.104 250.765 85.552 250.253 85.744L245.645 88.048C245.261 88.176 245.069 88.24 245.069 88.24C244.877 88.24 244.781 87.984 244.781 87.472V69.424C240.813 69.296 233.197 69.232 221.933 69.232C221.613 69.232 221.357 69.104 221.165 68.848C220.973 68.592 221.005 68.336 221.261 68.08L249.581 31.984C249.709 31.856 249.901 31.792 250.157 31.792C250.349 31.792 250.541 31.856 250.733 31.984C250.925 32.048 251.021 32.176 251.021 32.368V65.968L258.893 65.68ZM226.829 66.256C232.141 66.256 238.125 66.192 244.781 66.064V42.352L226.349 65.584C225.965 66.032 226.125 66.256 226.829 66.256ZM307.231 67.408C310.687 67.472 313.503 67.664 315.679 67.984C317.855 68.24 319.807 69.072 321.535 70.48C323.327 71.952 324.223 74.224 324.223 77.296C324.223 80.816 323.103 84.08 320.863 87.088C318.623 90.096 315.647 92.496 311.935 94.288C308.287 96.08 304.415 96.976 300.319 96.976C295.967 96.976 292.479 95.952 289.855 93.904C287.295 91.92 286.015 89.392 286.015 86.32C286.015 81.648 289.279 77.04 295.807 72.496C293.503 72.112 291.711 71.408 290.431 70.384C289.151 69.36 288.511 67.856 288.511 65.872C288.511 63.952 289.055 62.224 290.143 60.688C291.295 59.088 293.055 57.392 295.423 55.6C293.183 54.512 291.423 53.008 290.143 51.088C288.863 49.104 288.223 46.96 288.223 44.656C288.223 41.008 289.695 38.032 292.639 35.728C295.647 33.424 299.391 32.272 303.871 32.272C307.903 32.272 311.231 33.264 313.855 35.248C315.647 34.224 317.343 33.456 318.943 32.944C320.543 32.368 322.271 32.08 324.127 32.08C324.319 32.08 324.447 32.336 324.511 32.848C324.639 33.296 324.703 33.808 324.703 34.384C324.703 35.152 324.607 35.952 324.415 36.784C324.223 37.616 323.999 37.968 323.743 37.84C321.695 36.88 319.519 36.4 317.215 36.4C316.319 36.4 315.647 36.432 315.199 36.496C317.311 38.8 318.367 41.488 318.367 44.56C318.367 46.864 317.695 48.976 316.351 50.896C315.007 52.816 313.151 54.352 310.783 55.504C308.479 56.656 305.855 57.232 302.911 57.232C300.927 57.232 298.911 56.912 296.863 56.272C295.711 57.232 294.879 58.16 294.367 59.056C293.855 59.952 293.599 60.944 293.599 62.032C293.599 63.504 294.047 64.624 294.943 65.392C295.839 66.16 297.247 66.704 299.167 67.024C301.087 67.28 303.775 67.408 307.231 67.408ZM301.375 33.808C299.263 33.808 297.631 34.512 296.479 35.92C295.327 37.264 294.751 39.376 294.751 42.256C294.751 45.072 295.231 47.504 296.191 49.552C297.215 51.6 298.495 53.168 300.031 54.256C301.567 55.28 303.199 55.792 304.927 55.792C306.975 55.792 308.607 55.056 309.823 53.584C311.103 52.048 311.743 49.744 311.743 46.672C311.743 42.768 310.719 39.664 308.671 37.36C306.687 34.992 304.255 33.808 301.375 33.808ZM304.639 94C308.863 94 312.287 92.848 314.911 90.544C317.535 88.304 318.847 85.264 318.847 81.424C318.847 78.864 318.239 76.976 317.023 75.76C315.807 74.544 314.175 73.776 312.127 73.456C310.143 73.136 307.327 72.944 303.679 72.88C301.119 72.88 299.263 72.816 298.111 72.688C296.191 73.968 294.687 75.376 293.599 76.912C292.575 78.512 292.063 80.464 292.063 82.768C292.063 86.288 293.183 89.04 295.423 91.024C297.663 93.008 300.735 94 304.639 94ZM328.666 70C328.474 70 328.378 69.808 328.378 69.424C328.378 69.04 328.474 68.848 328.666 68.848C331.034 68.848 332.602 68.432 333.37 67.6C334.138 66.704 334.522 64.912 334.522 62.224V12.784C334.522 10.48 334.298 8.816 333.85 7.792C333.466 6.768 332.73 6.256 331.642 6.256C330.682 6.256 329.242 6.704 327.322 7.6H327.226C326.97 7.6 326.746 7.44 326.554 7.12C326.426 6.736 326.49 6.512 326.746 6.44799L339.418 0.495996L339.802 0.399998C339.994 0.399998 340.218 0.495996 340.474 0.687994C340.73 0.879995 340.858 1.072 340.858 1.264V62.224C340.858 64.912 341.21 66.704 341.914 67.6C342.682 68.432 344.282 68.848 346.714 68.848C346.906 68.848 347.002 69.04 347.002 69.424C347.002 69.808 346.906 70 346.714 70C345.178 70 343.93 69.968 342.97 69.904L337.69 69.808L332.314 69.904C331.418 69.968 330.202 70 328.666 70ZM388.836 64.816C389.092 64.816 389.252 64.976 389.316 65.296C389.38 65.552 389.284 65.744 389.028 65.872L379.14 70.576C378.884 70.704 378.596 70.768 378.276 70.768C377.444 70.768 376.676 70.224 375.972 69.136C375.332 67.984 374.884 66.448 374.628 64.528L369.828 67.696C368.292 68.784 366.884 69.552 365.604 70C364.388 70.448 363.076 70.672 361.668 70.672C359.236 70.672 357.348 70.064 356.004 68.848C354.66 67.568 353.988 65.968 353.988 64.048C353.988 62 354.788 60.304 356.388 58.96C358.052 57.552 360.676 56.176 364.26 54.832L374.532 51.088V44.752C374.532 40.912 374.02 38.128 372.996 36.4C372.036 34.672 370.596 33.808 368.676 33.808C366.564 33.808 364.964 34.544 363.876 36.016C362.788 37.488 362.084 39.152 361.764 41.008C361.38 43.824 360.068 45.232 357.828 45.232C356.676 45.232 355.812 44.944 355.236 44.368C354.66 43.792 354.372 43.088 354.372 42.256C354.372 40.656 355.364 39.056 357.348 37.456C359.396 35.856 361.828 34.544 364.644 33.52C367.524 32.496 370.052 31.984 372.228 31.984C374.852 31.984 376.868 32.848 378.276 34.576C379.748 36.24 380.484 38.672 380.484 41.872V59.632C380.484 61.808 380.772 63.408 381.348 64.432C381.988 65.456 382.948 65.968 384.228 65.968C385.38 65.968 386.852 65.584 388.644 64.816H388.836ZM374.532 63.088V62.512V52.432L366.468 55.696C364.74 56.336 363.428 57.136 362.532 58.096C361.636 58.992 361.188 60.144 361.188 61.552C361.188 63.088 361.668 64.368 362.628 65.392C363.652 66.352 364.932 66.832 366.468 66.832C367.748 66.832 369.188 66.352 370.788 65.392L374.532 63.088ZM436.061 68.848C436.253 68.848 436.349 69.04 436.349 69.424C436.349 69.808 436.253 70 436.061 70C434.461 70 433.213 69.968 432.317 69.904L427.133 69.808L421.949 69.904C421.053 69.968 419.837 70 418.301 70C418.109 70 418.013 69.808 418.013 69.424C418.013 69.04 418.109 68.848 418.301 68.848C419.965 68.848 421.181 68.688 421.949 68.368C422.781 67.984 423.325 67.344 423.581 66.448C423.901 65.488 424.061 64.08 424.061 62.224V46.96C424.061 43.248 423.357 40.528 421.949 38.8C420.605 37.008 418.429 36.112 415.421 36.112C413.565 36.112 411.645 36.592 409.661 37.552C407.741 38.512 405.981 39.856 404.381 41.584V62.224C404.381 64.08 404.509 65.488 404.765 66.448C405.085 67.344 405.661 67.984 406.493 68.368C407.325 68.688 408.573 68.848 410.237 68.848C410.429 68.848 410.525 69.04 410.525 69.424C410.525 69.808 410.429 70 410.237 70C408.637 70 407.389 69.968 406.493 69.904L401.309 69.808L396.125 69.904C395.229 69.968 394.013 70 392.477 70C392.285 70 392.189 69.808 392.189 69.424C392.189 69.04 392.285 68.848 392.477 68.848C394.141 68.848 395.357 68.688 396.125 68.368C396.957 67.984 397.501 67.344 397.757 66.448C398.077 65.488 398.237 64.08 398.237 62.224V43.408C398.237 41.296 397.981 39.76 397.469 38.8C396.957 37.84 396.125 37.36 394.973 37.36C394.013 37.36 392.317 37.84 389.885 38.8H389.789C389.533 38.8 389.341 38.672 389.213 38.416C389.085 38.096 389.149 37.872 389.405 37.744L400.925 32.176L401.501 32.08C402.141 32.08 402.749 32.816 403.325 34.288C403.965 35.696 404.317 37.584 404.381 39.952C409.053 34.448 413.949 31.696 419.069 31.696C422.589 31.696 425.309 32.72 427.229 34.768C429.213 36.816 430.205 39.728 430.205 43.504V62.224C430.205 64.08 430.333 65.488 430.589 66.448C430.909 67.344 431.485 67.984 432.317 68.368C433.149 68.688 434.397 68.848 436.061 68.848Z" fill="white"/>
<path d="M441.856 65.72C441.664 65.72 441.504 65.88 441.376 66.2C441.248 66.456 441.28 66.648 441.472 66.776C443.84 68.696 445.984 70.072 447.904 70.904C449.824 71.736 451.872 72.152 454.048 72.152C456.736 72.152 458.976 71.544 460.768 70.328C462.496 69.048 463.36 66.968 463.36 64.088V41.72C463.36 40.184 463.488 39.064 463.744 38.36C464 37.592 464.48 37.08 465.184 36.824C465.824 36.568 466.88 36.44 468.352 36.44C468.544 36.44 468.64 36.216 468.64 35.768C468.64 35.32 468.544 35.096 468.352 35.096C465.664 35.032 463.488 34.36 461.824 33.08C460.096 31.8 459.04 30.008 458.656 27.704C458.592 27.512 458.336 27.416 457.888 27.416C457.44 27.416 457.216 27.512 457.216 27.704V35C454.144 34.936 449.76 34.616 444.064 34.04C443.872 34.04 443.712 34.264 443.584 34.712C443.456 35.16 443.392 35.672 443.392 36.248C443.392 36.824 443.488 37.4 443.68 37.976C443.872 38.488 444.096 38.712 444.352 38.648C447.936 37.816 452.224 37.336 457.216 37.208V60.824C457.216 65.944 454.72 68.504 449.728 68.504C447.04 68.504 444.48 67.608 442.048 65.816L441.856 65.72Z" fill="white"/>
<path d="M494.592 35.864C494.848 35.416 494.688 35.192 494.112 35.192C489.44 35.192 485.728 35.448 482.976 35.96C480.224 36.408 478.048 37.272 476.448 38.552C474.848 39.832 473.696 41.656 472.992 44.024C472.992 44.152 472.864 44.216 472.608 44.216C472.416 44.216 472.224 44.184 472.032 44.12C471.84 43.992 471.776 43.896 471.84 43.832L475.2 30.968C475.2 30.84 475.36 30.776 475.68 30.776C475.872 30.776 476.032 30.84 476.16 30.968C476.352 31.032 476.416 31.096 476.352 31.16C476.288 31.352 476.256 31.64 476.256 32.024C476.256 32.792 476.608 33.304 477.312 33.56C478.016 33.816 479.232 33.944 480.96 33.944H501.6C501.856 33.944 502.08 34.072 502.272 34.328C502.464 34.584 502.496 34.84 502.368 35.096L479.808 68.888C479.616 69.336 479.776 69.56 480.288 69.56C486.176 69.56 490.464 69.336 493.152 68.888C495.904 68.44 497.92 67.544 499.2 66.2C500.544 64.856 501.664 62.712 502.56 59.768C502.624 59.64 502.816 59.576 503.136 59.576C503.456 59.576 503.616 59.64 503.616 59.768L503.424 69.944C503.424 70.2 503.328 70.456 503.136 70.712C503.008 70.904 502.816 71 502.56 71H472.512C472.256 71 472.032 70.872 471.84 70.616C471.712 70.36 471.712 70.104 471.84 69.848L494.592 35.864Z" fill="white"/>
</svg>
